<?xml version="1.0" encoding="UTF-8"?>
<svg xmlns="http://www.w3.org/2000/svg" xmlns:xlink="http://www.w3.org/1999/xlink" width="20px" height="20px" viewBox="0 0 20 19" version="1.1">
<g id="surface1">
<path style=" stroke:none;fill-rule:nonzero;fill:rgb(0%,0%,0%);fill-opacity:1;" d="M 4.664062 0.285156 L 9.582031 0.285156 L 7.234375 2.632812 L 4.664062 2.632812 C 4.078125 2.632812 3.515625 2.859375 3.105469 3.257812 C 2.6875 3.652344 2.453125 4.191406 2.453125 4.753906 L 2.453125 16.621094 L 14.84375 16.621094 C 15.433594 16.621094 15.992188 16.398438 16.40625 16 C 16.824219 15.601562 17.058594 15.066406 17.058594 14.503906 L 17.058594 12.078125 L 19.511719 9.625 L 19.511719 14.503906 C 19.507812 15.6875 19.015625 16.820312 18.140625 17.65625 L 18.140625 17.664062 C 17.269531 18.5 16.085938 18.96875 14.851562 18.972656 L 1.871094 18.972656 C 1.378906 18.96875 0.902344 18.78125 0.554688 18.445312 C 0.199219 18.109375 0 17.652344 0 17.175781 L 0 4.753906 C 0 3.570312 0.492188 2.4375 1.367188 1.601562 L 1.375 1.585938 C 2.25 0.75 3.429688 0.28125 4.664062 0.277344 Z M 11.882812 11.949219 L 7.09375 12.886719 L 7.785156 8.003906 Z M 9.296875 6.527344 L 15.671875 0.171875 C 15.816406 0.0234375 16.042969 -0.0117188 16.226562 0.0898438 L 19.882812 3.480469 C 19.964844 3.554688 20.003906 3.660156 20 3.765625 C 19.992188 3.871094 19.941406 3.96875 19.851562 4.035156 L 13.390625 10.472656 Z M 9.296875 6.527344 "/>
</g>
</svg>
